<svg xmlns="http://www.w3.org/2000/svg" version="1.1" xmlns:xlink="http://www.w3.org/1999/xlink" xmlns:svgjs="http://svgjs.dev/svgjs" width="2000" height="858" viewBox="0 0 2000 858"><g transform="matrix(1,0,0,1,-1.2121212121212466,0.8280552455898942)"><svg viewBox="0 0 396 170" data-background-color="#000000" preserveAspectRatio="xMidYMid meet" height="858" width="2000" xmlns="http://www.w3.org/2000/svg" xmlns:xlink="http://www.w3.org/1999/xlink"><g id="tight-bounds" transform="matrix(1,0,0,1,0.2400000000000091,-0.16406689015184384)"><svg viewBox="0 0 395.52 170.32812869473491" height="170.32812869473491" width="395.52"><g><svg viewBox="0 0 814.2281608610383 350.6420888198227" height="170.32812869473491" width="395.52"><g transform="matrix(1,0,0,1,0,65.05756811194296)"><svg viewBox="0 0 395.52 220.52695259593676" height="220.52695259593676" width="395.52"><g id="textblocktransform"><svg viewBox="0 0 395.52 220.52695259593676" height="220.52695259593676" width="395.52" id="textblock"><g><svg viewBox="0 0 395.52 220.52695259593676" height="220.52695259593676" width="395.52"><g transform="matrix(1,0,0,1,0,0)"><svg width="395.52" viewBox="2.049999952316284 -36.5 66.44999694824219 37.04999923706055" height="220.52695259593676" data-palette-color="#eb2a88"><path d="M14.15 0.3Q8.45 0.3 5.25-3 2.05-6.3 2.05-12.15L2.05-12.15Q2.05-16.15 3.53-19.28 5-22.4 7.65-24.13 10.3-25.85 13.75-25.85L13.75-25.85Q16.5-25.85 18.73-24.73 20.95-23.6 22.13-21.65 23.3-19.7 23.1-17.35L23.1-17.35 19.1-17.35Q19.3-19.4 17.85-20.78 16.4-22.15 13.95-22.15L13.95-22.15Q11.65-22.15 9.88-20.9 8.1-19.65 7.13-17.35 6.15-15.05 6.15-12.1L6.15-12.1Q6.15-7.9 8.22-5.65 10.3-3.4 14.15-3.4L14.15-3.4Q15.85-3.4 17.6-4 19.35-4.6 22-6.05L22-6.05 23.9-2.95Q19.5 0.3 14.15 0.3L14.15 0.3ZM49.35-4.45Q49.35-3.9 49.7-3.53 50.05-3.15 50.6-3.15L50.6-3.15Q51.4-3.15 51.85-4.05L51.85-4.05 54.8-2.2Q54.1-0.9 52.97-0.18 51.85 0.55 50.35 0.55L50.35 0.55Q48 0.55 46.62-0.83 45.25-2.2 45.25-4.6L45.25-4.6 45.25-17.4Q45.25-22.15 40.4-22.15L40.4-22.15Q38.2-22.15 36.6-21.08 35-20 33.25-17.7L33.25-17.7 33.25-0.1 29.15-0.1 29.15-36.5 33.25-36.5 33.25-22.7Q36.5-25.95 40.75-25.95L40.75-25.95Q44.9-25.95 47.12-23.75 49.35-21.55 49.35-17.55L49.35-17.55 49.35-4.45ZM63.05-4.45Q63.05-3.9 63.39-3.53 63.74-3.15 64.3-3.15L64.3-3.15Q65.09-3.15 65.55-4.05L65.55-4.05 68.5-2.2Q67.8-0.9 66.67-0.18 65.55 0.55 64.05 0.55L64.05 0.55Q61.7 0.55 60.32-0.83 58.95-2.2 58.95-4.6L58.95-4.6 58.95-25.05 63.05-25.05 63.05-4.45ZM60.95-29.9Q59.95-29.9 59.14-30.7 58.34-31.5 58.34-32.5L58.34-32.5Q58.34-33.55 59.14-34.35 59.95-35.15 60.95-35.15L60.95-35.15Q61.99-35.15 62.82-34.35 63.64-33.55 63.64-32.5L63.64-32.5Q63.64-31.5 62.82-30.7 61.99-29.9 60.95-29.9L60.95-29.9Z" opacity="1" transform="matrix(1,0,0,1,0,0)" fill="#000000" class="wordmark-text-0" data-fill-palette-color="primary" id="text-0"></path></svg></g></svg></g></svg></g></svg></g><g transform="matrix(1,0,0,1,447.58112086103836,0)"><svg viewBox="0 0 366.64704 350.6420888198227" height="350.6420888198227" width="366.64704"><g><svg xmlns="http://www.w3.org/2000/svg" xmlns:xlink="http://www.w3.org/1999/xlink" version="1.1" x="8" y="0" viewBox="14.609999656677246 14.609999656677246 70.78199768066406 70.78099822998047" enable-background="new 0 0 100 100" xml:space="preserve" height="350.6420888198227" width="350.64704" class="icon-icon-0" data-fill-palette-color="accent" id="icon-0"><path d="M55.485 42.639L62.9 50l-7.415 7.363 2.549 2.566L68.033 50l-9.999-9.928L55.485 42.639zM41.967 40.072l-10 9.928 10 9.93 2.548-2.566L37.101 50l7.415-7.361L41.967 40.072zM50.001 14.61C30.486 14.61 14.61 30.486 14.61 50c0 19.515 15.876 35.391 35.391 35.391S85.392 69.515 85.392 50C85.392 30.486 69.516 14.61 50.001 14.61zM50.001 81.773C32.48 81.773 18.226 67.521 18.226 50c0-17.52 14.254-31.774 31.775-31.774S81.774 32.48 81.774 50C81.774 67.521 67.521 81.773 50.001 81.773z" fill="#000000" data-fill-palette-color="accent"></path></svg></g></svg></g></svg></g><defs></defs></svg><rect width="395.52" height="170.32812869473491" fill="none" stroke="none" visibility="hidden"></rect></g></svg></g></svg>